<?xml version="1.0" standalone="no"?>
<!DOCTYPE svg PUBLIC "-//W3C//DTD SVG 20010904//EN"
 "http://www.w3.org/TR/2001/REC-SVG-20010904/DTD/svg10.dtd">
<svg version="1.0" xmlns="http://www.w3.org/2000/svg"
 width="500.000000pt" height="500.000000pt" viewBox="0 0 500.000000 500.000000"
 preserveAspectRatio="xMidYMid meet">

<g transform="translate(0.000000,500.000000) scale(0.100000,-0.100000)"
fill="#000000" stroke="none">
<path d="M573 4292 c-139 -50 -224 -181 -210 -326 4 -34 13 -86 20 -116 8 -30
26 -107 41 -170 15 -63 31 -133 36 -155 9 -37 56 -239 81 -345 6 -25 14 -63
19 -85 6 -22 23 -96 39 -165 16 -69 39 -168 51 -220 12 -52 35 -149 50 -215
16 -66 40 -172 55 -235 14 -63 35 -151 45 -195 11 -44 31 -129 45 -190 14 -60
32 -137 40 -170 8 -33 21 -94 30 -135 28 -126 45 -166 92 -227 45 -57 133 -99
248 -117 50 -9 117 -20 150 -26 33 -6 96 -17 140 -25 44 -8 107 -19 140 -25
33 -6 96 -17 140 -25 44 -8 107 -19 140 -25 33 -6 96 -17 140 -25 44 -8 107
-19 140 -25 33 -6 96 -17 140 -25 44 -8 105 -18 135 -24 30 -5 123 -22 205
-36 83 -15 211 -38 285 -51 74 -13 200 -36 280 -50 80 -14 186 -33 235 -42
158 -28 234 -19 320 41 57 39 112 125 132 204 8 32 19 74 24 93 6 19 15 53 20
75 5 22 18 69 29 105 16 52 110 394 159 580 6 19 17 60 26 90 22 78 25 88 125
455 93 341 95 350 130 475 61 217 64 239 46 313 -17 73 -56 138 -107 181 -52
44 -77 52 -364 117 -49 11 -139 31 -200 45 -60 13 -162 36 -225 50 -63 15
-160 37 -215 49 -55 13 -154 35 -220 50 -66 15 -148 33 -182 41 -35 8 -93 21
-130 29 -38 9 -86 20 -108 25 -22 5 -71 16 -110 25 -38 8 -88 20 -110 25 -22
5 -71 16 -110 25 -38 8 -88 20 -110 25 -22 5 -71 16 -110 25 -38 8 -88 20
-110 25 -22 5 -71 16 -110 25 -38 8 -119 26 -180 40 -60 14 -150 34 -200 46
-107 24 -259 58 -410 92 -60 14 -164 38 -230 52 -66 15 -147 34 -180 42 -101
24 -183 26 -242 5z m1014 -954 c-2 -18 -4 -4 -4 32 0 36 2 50 4 33 2 -18 2
-48 0 -65z"/>
</g>
</svg>
